<svg height="256" preserveAspectRatio="xMidYMid" viewBox="0 0 256 256" width="256" xmlns="http://www.w3.org/2000/svg" xmlns:xlink="http://www.w3.org/1999/xlink"><linearGradient id="a" x1="-12.563845%" x2="101.304079%" y1="108.214456%" y2="-1.964184%"><stop offset="0" stop-color="#f69923"/><stop offset=".10996" stop-color="#f79a23"/><stop offset=".94502" stop-color="#e97826"/></linearGradient><linearGradient id="b" x1="-12.563845%" x2="101.304079%" y1="108.214456%" y2="-1.964184%"><stop offset="0" stop-color="#f69923"/><stop offset=".080478" stop-color="#f79a23"/><stop offset=".41874" stop-color="#e97826"/></linearGradient><linearGradient id="c" x1="74.724154%" x2="6.652842%" y1="-3.059151%" y2="100.065517%"><stop offset="0" stop-color="#f6e423"/><stop offset=".41191" stop-color="#f79a23"/><stop offset=".73271" stop-color="#e97826"/></linearGradient><mask id="d" fill="#fff"><circle cx="128" cy="128.00015" fill="#fff" r="128"/></mask><circle cx="127.99429" cy="127.994289" fill="url(#a)" mask="url(#d)" r="123.110531"/><path d="m128 256c-70.692448 0-128-57.307552-128-128s57.307552-128 128-128 128 57.307552 128 128-57.307552 128-128 128zm0-9.767953c65.297756 0 118.232047-52.93429 118.232047-118.232047 0-65.2977566-52.934291-118.23204715-118.232047-118.23204715-65.2977567 0-118.23204713 52.93429055-118.23204713 118.23204715 0 65.297757 52.93429043 118.232047 118.23204713 118.232047z" fill="url(#b)" mask="url(#d)"/><path d="m98.0436948 75.5167519c-1.7506821-.0019691-3.5241669.0098457-5.2920593.0614371-2.0551898.0606495-4.8163156.7131825-7.9996247 1.7845317 53.7751992 40.8340223 73.1082012 114.4975193 39.8750522 178.5142083 1.128651.02934 2.248756.123071 3.384555.123071 60.736103 0 111.492614-42.322691 124.609045-99.07129-38.541945-45.177942-90.812723-81.3135996-154.577362-81.4120565z" fill="url(#c)" mask="url(#d)" opacity=".75"/><path d="m84.7520108 77.3677419c-17.8565405 6.0094166-51.9222405 27.1780471-84.67294989 55.4430601 2.48721867 67.334686 57.02821629 121.312708 124.54800209 123.071148 33.233149-64.016688 13.900935-137.680186-39.8750522-178.5142081z" fill="#28170b" mask="url(#d)" opacity=".75"/><path d="m128.747194 54.0045284c-10.984858 5.4953716 0 27.4660679 0 27.4660679-32.973015 27.4837247-25.967206 74.4291207-64.4353959 74.4291207-20.9703429 0-42.2422261-24.076794-64.23273719-38.828034-.28309669 3.47897-.78535974 6.972463-.78535974 10.524414 0 48.095047 26.26287413 89.924363 65.41967773 111.897217 10.9526831-1.379601 22.8386364-4.114448 31.0509907-9.592555 43.1452694-28.764821 53.8570354-83.490961 71.4863274-109.92509 10.978972-16.492 62.434296-15.061018 65.906792-22.0101294 5.501257-10.9907433-10.990547-27.4660679-16.491804-27.4660679h-43.95748c-3.071295 0-7.897083-5.4563306-10.974264-5.4563306h-16.491804s-7.306955-11.0851089-13.794244-11.5259393c-.929903-.0661147-1.830633.0525779-2.700699.4873266z" fill="#fff" mask="url(#d)"/></svg>