<svg xmlns="http://www.w3.org/2000/svg"  viewBox="0 0 50 50" width="50px" height="50px"><path d="M 24.009766 5 C 22.691544 5 21.698513 5.1637716 20.888672 5.7441406 C 20.07883 6.3245096 19.598627 7.1216799 18.871094 8.2304688 C 18.403922 8.9424513 17.229201 11.039778 15.603516 13.982422 C 13.977831 16.925065 11.954636 20.635485 9.9785156 24.298828 C 8.0023955 27.962171 6.0738718 31.576047 4.6367188 34.328125 C 3.9181422 35.704164 3.3225273 36.86408 2.9023438 37.712891 C 2.6922519 38.137296 2.5261644 38.483119 2.40625 38.75 C 2.346293 38.88344 2.2984903 38.996341 2.2578125 39.103516 C 2.2171345 39.21069 2.1503906 39.175486 2.1503906 39.607422 C 2.1503906 40.906743 2.5391071 42.251235 3.6542969 43.867188 L 3.6523438 43.867188 C 4.2823407 44.782567 5.1364249 45.523566 6.1738281 45.845703 C 7.2112313 46.16784 8.4886244 45.934593 9.3828125 45.021484 C 9.7152458 44.682343 9.861039 44.400515 10.226562 43.832031 C 10.592087 43.263548 11.062496 42.505976 11.615234 41.605469 C 12.720711 39.804454 14.154477 37.431003 15.705078 34.888672 C 18.806281 29.804009 22.390427 24.028946 24.664062 20.931641 L 24.691406 20.894531 C 24.848588 20.661709 24.753956 20.746094 24.923828 20.746094 C 25.096368 20.746094 25.182561 20.727794 25.302734 20.902344 L 25.3125 20.914062 L 25.320312 20.925781 C 27.595284 24.025038 31.182006 29.799805 34.287109 34.884766 C 35.839661 37.427246 37.275849 39.802408 38.382812 41.603516 C 38.936295 42.504069 39.407437 43.261544 39.773438 43.830078 C 40.139437 44.398612 40.287304 44.681006 40.619141 45.019531 C 41.512888 45.931532 42.786864 46.165354 43.824219 45.84375 C 44.861574 45.522146 45.717067 44.781204 46.347656 43.865234 C 47.462947 42.248063 47.851562 40.902241 47.851562 39.605469 C 47.851562 39.174036 47.782872 39.208787 47.742188 39.101562 C 47.701507 38.994338 47.653708 38.881524 47.59375 38.748047 C 47.473829 38.481092 47.307749 38.135392 47.097656 37.710938 C 46.67747 36.862026 46.081845 35.702247 45.363281 34.326172 C 43.926155 31.574022 41.999435 27.959973 40.023438 24.296875 C 38.04744 20.633777 36.023848 16.922436 34.398438 13.980469 C 32.773444 11.039257 31.600348 8.9464697 31.132812 8.234375 L 31.132812 8.2324219 C 30.398743 7.1134216 29.873214 6.3033162 29.037109 5.7324219 C 28.2006 5.1612594 27.193617 5 25.873047 5 L 24.009766 5 z M 24.009766 7 L 25.873047 7 C 27.043477 7 27.520692 7.120172 27.908203 7.3847656 C 28.295714 7.6493593 28.736584 8.228876 29.458984 9.3300781 L 29.460938 9.3300781 C 29.752143 9.7735108 31.025613 12.013514 32.646484 14.947266 C 34.267355 17.881017 36.288592 21.588317 38.261719 25.246094 C 40.234846 28.903871 42.161892 32.513634 43.591797 35.251953 C 44.306749 36.621113 44.896557 37.773102 45.304688 38.597656 C 45.508752 39.009933 45.668428 39.341342 45.769531 39.566406 C 45.801061 39.636606 45.814904 39.672787 45.833984 39.71875 C 45.818604 40.6238 45.626745 41.388387 44.701172 42.730469 C 44.277761 43.345499 43.696567 43.789698 43.232422 43.933594 C 42.768277 44.07749 42.475128 44.05614 42.046875 43.619141 C 42.155461 43.729916 41.806308 43.291685 41.455078 42.746094 C 41.103848 42.200503 40.63808 41.451837 40.087891 40.556641 C 38.987511 38.766248 37.549464 36.39077 35.994141 33.84375 C 32.887719 28.75663 29.326331 23.009836 26.945312 19.763672 C 26.349093 18.904145 25.382095 18.746094 24.923828 18.746094 C 24.466019 18.746094 23.575225 19.003243 23.046875 19.757812 L 23.050781 19.748047 C 23.048181 19.751647 23.043716 19.760092 23.041016 19.763672 C 23.038916 19.766672 23.035203 19.766531 23.033203 19.769531 L 22.857422 20.025391 L 22.857422 20.048828 C 20.479078 23.326127 17.038538 28.860581 13.998047 33.845703 C 12.444648 36.392622 11.009054 38.768296 9.9101562 40.558594 C 9.3606922 41.453728 8.8956635 42.204507 8.5449219 42.75 C 8.1941802 43.295493 7.8436917 43.732735 7.953125 43.621094 L 7.953125 43.623047 C 7.5243131 44.060887 7.2316749 44.07966 6.7675781 43.935547 C 6.3034813 43.791434 5.7237843 43.347042 5.3007812 42.732422 C 4.3750656 41.391024 4.1833078 40.628641 4.1679688 39.720703 C 4.1870268 39.674853 4.1991177 39.640083 4.2304688 39.570312 C 4.3315792 39.345283 4.4912422 39.011851 4.6953125 38.599609 C 5.1034531 37.775127 5.6951861 36.623039 6.4101562 35.253906 C 7.8400969 32.51564 9.7650265 28.906079 11.738281 25.248047 C 13.711536 21.590015 15.732357 17.883669 17.353516 14.949219 C 18.974674 12.014768 20.25064 9.7736424 20.542969 9.328125 C 21.271435 8.2179138 21.699029 7.6259746 22.054688 7.3710938 C 22.410346 7.1162127 22.841987 7 24.009766 7 z"/></svg>